Coordinates
version=1
nRows=15
nColumns=46
inDegrees=yes

Units are S.I. units (second, meters, Newtons, ...)
Angles are in degrees.

endheader
time	pelvis_tilt	pelvis_list	pelvis_rotation	pelvis_tx	pelvis_ty	pelvis_tz	bb_angle	bb_tx	bb_ty	bb_tz	hip_flexion_r	hip_adduction_r	hip_rotation_r	knee_angle_r	knee_angle_r_beta	ankle_angle_r	subtalar_angle_r	mtp_angle_r	crank_angle_r	hip_flexion_l	hip_adduction_l	hip_rotation_l	knee_angle_l	knee_angle_l_beta	ankle_angle_l	subtalar_angle_l	mtp_angle_l	crank_angle_l	lumbar_extension	lumbar_bending	lumbar_rotation	arm_flex_r	arm_add_r	arm_rot_r	elbow_flex_r	pro_sup_r	wrist_flex_r	wrist_dev_r	arm_flex_l	arm_add_l	arm_rot_l	elbow_flex_l	pro_sup_l	wrist_flex_l	wrist_dev_l
      5.00000000	    -33.78174086	      7.23905071	     -7.10813509	      0.33785081	      1.07573173	     -0.22948776	      0.00000000	      0.50000000	      0.00000000	      0.25000000	     53.42524127	     -7.91527143	     -2.24445063	     28.66736790	      0.50033996	    -11.77873661	      6.28472476	      0.00000000	      0.00000000	     67.40405059	     -4.14583042	     -6.02254476	     95.86392350	      1.67314110	    -15.20547499	    -14.44963963	      0.00000000	      0.00000000	    -55.84968796	    -10.00484225	      5.49875633	     38.35868227	    -37.30513256	      9.49202740	    116.85379074	     54.14767456	      0.00000000	      0.00000000	     52.87602521	    -16.35549338	     22.78054581	     97.89623592	     52.58934673	      0.00000000	      0.00000000
      5.00500000	    -33.61739116	      7.88408193	     -5.74101330	      0.33875374	      1.07399852	     -0.22982602	      0.00000000	      0.50000000	      0.00000000	      0.25000000	     51.67585342	     -9.32076861	     -2.55638825	     26.56181896	      0.46359120	    -13.11410079	      6.15473246	      0.00000000	      0.00000000	     68.78235968	     -3.26138968	     -6.25422503	     97.92207581	      1.70906263	    -14.22801440	    -13.85844394	      0.00000000	      0.00000000	    -55.73291033	     -9.98973360	      4.02962001	     37.54502092	    -37.63531728	      9.48165323	    116.47058964	     54.09295835	      0.00000000	      0.00000000	     53.12838099	    -16.56842782	     23.24008365	     97.70339044	     52.59637962	      0.00000000	      0.00000000
      5.01000000	    -33.54960336	      8.32067322	     -4.44060818	      0.33932715	      1.07228664	     -0.22981806	      0.00000000	      0.50000000	      0.00000000	      0.25000000	     49.93864753	    -10.41241361	     -2.86236396	     24.45937192	      0.42689657	    -14.56548477	      5.67144642	      0.00000000	      0.00000000	     70.28425309	     -2.63558679	     -6.32071157	     99.93252339	      1.74415156	    -13.04816849	    -13.02220425	      0.00000000	      0.00000000	    -55.52115080	     -9.94637482	      2.84023162	     36.83031288	    -37.98544272	      9.37782717	    115.95962822	     54.00627757	      0.00000000	      0.00000000	     53.85912816	    -17.22488989	     24.69717810	     97.26507354	     52.66237324	      0.00000000	      0.00000000
      5.01500000	    -33.61517668	      8.88968106	     -3.06126658	      0.33977645	      1.07053609	     -0.23031314	      0.00000000	      0.50000000	      0.00000000	      0.25000000	     48.46661284	    -11.71524637	     -3.25783700	     22.63075936	      0.39498126	    -15.81412812	      5.59895963	      0.00000000	      0.00000000	     71.92264001	     -1.82822344	     -6.61209210	    101.74820654	      1.77584121	    -12.37824429	    -12.90607655	      0.00000000	      0.00000000	    -55.21050476	     -9.89643283	      1.43616393	     36.06582287	    -38.25398139	      9.41534242	    115.61054913	     53.95724535	      0.00000000	      0.00000000	     54.06022719	    -17.36566634	     24.89527092	     97.10997077	     52.64304047	      0.00000000	      0.00000000
      5.02000000	    -33.65513884	      9.13146158	     -1.69887448	      0.34027191	      1.06929943	     -0.23084151	      0.00000000	      0.50000000	      0.00000000	      0.25000000	     46.81603766	    -12.72477656	     -4.02949075	     20.67999945	      0.36093408	    -17.72639959	      5.14580079	      0.00000000	      0.00000000	     73.53293437	     -1.23289084	     -6.65849939	    103.45441973	      1.80562025	    -11.67253853	    -12.32771211	      0.00000000	      0.00000000	    -54.93243250	     -9.58699766	      0.25486722	     35.26074266	    -38.45155908	      9.52580037	    114.95372630	     53.86638355	      0.00000000	      0.00000000	     54.35148076	    -17.89846545	     25.57508660	     96.82336000	     52.65262148	      0.00000000	      0.00000000
      5.02500000	    -33.75041311	      9.38503922	     -0.45775262	      0.34043725	      1.06826738	     -0.23132478	      0.00000000	      0.50000000	      0.00000000	      0.25000000	     45.33161253	    -13.63250411	     -4.66700462	     18.96715885	      0.33103937	    -19.36441131	      4.68223895	      0.00000000	      0.00000000	     75.18015446	     -0.70199548	     -6.79675046	    105.02847987	      1.83309278	    -10.88416158	    -11.92903998	      0.00000000	      0.00000000	    -54.54986036	     -9.41437429	     -0.97370351	     35.02376780	    -38.67144803	      9.84376777	    114.18702948	     53.77500277	      0.00000000	      0.00000000	     55.16714748	    -18.89188826	     27.16065079	     96.47380950	     52.74133497	      0.00000000	      0.00000000
      5.03000000	    -33.94825264	      9.62755122	      0.93798986	      0.34067868	      1.06769556	     -0.23239212	      0.00000000	      0.50000000	      0.00000000	      0.25000000	     43.91094289	    -14.68302251	     -5.69654659	     17.28204596	      0.30162860	    -21.14449722	      4.58325564	      0.00000000	      0.00000000	     76.86898973	      0.08333914	     -6.95176573	    106.32306329	      1.85568753	    -10.43355318	    -11.83210096	      0.00000000	      0.00000000	    -54.20505975	     -9.05377675	     -2.21606226	     34.52754487	    -38.79184751	     10.00335921	    113.75795429	     53.72612172	      0.00000000	      0.00000000	     55.36941450	    -19.05061544	     27.49835253	     96.25794871	     52.73093962	      0.00000000	      0.00000000
      5.03500000	    -33.98634037	      9.62726936	      2.14516462	      0.34083267	      1.06775824	     -0.23308242	      0.00000000	      0.50000000	      0.00000000	      0.25000000	     42.25468942	    -15.33719287	     -6.78483422	     15.47928283	      0.27016445	    -23.29199860	      4.13203666	      0.00000000	      0.00000000	     78.35568691	      0.64973704	     -6.90728437	    107.49829725	      1.87619923	     -9.86530323	    -11.58386908	      0.00000000	      0.00000000	    -53.96591412	     -8.61026391	     -3.25455215	     34.74999991	    -38.55967474	     10.43266487	    112.75472773	     53.60004595	      0.00000000	      0.00000000	     55.94880758	    -19.62087318	     28.43100967	     95.79075691	     52.73547769	      0.00000000	      0.00000000
      5.04000000	    -34.04860680	      9.67221831	      3.42376800	      0.34153075	      1.06842927	     -0.23377524	      0.00000000	      0.50000000	      0.00000000	      0.25000000	     40.56172296	    -16.07407691	     -8.20374203	     13.65302031	      0.23829016	    -25.55608628	      4.08779459	      0.00000000	      0.00000000	     79.69400156	      1.38273317	     -6.88140880	    108.35393944	      1.89113300	     -9.17476915	    -11.66269910	      0.00000000	      0.00000000	    -53.72960605	     -8.10396316	     -4.81178659	     35.64685618	    -37.67642781	     11.66876275	    111.19391195	     53.46344881	      0.00000000	      0.00000000	     56.16678003	    -20.72991371	     28.98310299	     95.71002860	     52.75893773	      0.00000000	      0.00000000
      5.04500000	    -34.10949123	      9.61190193	      4.69602522	      0.34262477	      1.06968761	     -0.23429443	      0.00000000	      0.50000000	      0.00000000	      0.25000000	     38.77213894	    -16.64972113	     -9.84159641	     11.67841359	      0.20382677	    -28.25339635	      4.07602928	      0.00000000	      0.00000000	     80.92437058	      2.14087123	     -6.72244067	    108.92317783	      1.90106808	     -8.85672010	    -11.31972710	      0.00000000	      0.00000000	    -53.67348793	     -7.58484474	     -5.75510047	     35.56943013	    -37.21039086	     11.76959176	    110.86060463	     53.41825348	      0.00000000	      0.00000000	     56.33554256	    -20.75175895	     29.21923666	     95.53078224	     52.74777382	      0.00000000	      0.00000000
      5.05000000	    -34.07545699	      9.51694119	      5.94118870	      0.34385218	      1.07169466	     -0.23461071	      0.00000000	      0.50000000	      0.00000000	      0.25000000	     36.78797035	    -17.07103393	    -11.42285506	      9.45836102	      0.16507954	    -31.42880408	      3.83554671	      0.00000000	      0.00000000	     81.92389939	      2.94340184	     -6.47763356	    109.24481292	      1.90668168	     -8.47239780	    -10.97566288	      0.00000000	      0.00000000	    -53.76336489	     -7.04748360	     -6.75794606	     35.35561815	    -36.50539029	     11.70589835	    109.83098019	     53.24734666	      0.00000000	      0.00000000	     56.71621615	    -20.95900336	     29.60138136	     95.27236044	     52.73571340	      0.00000000	      0.00000000
      5.05500000	    -35.70410740	     10.44769987	      7.69344625	      0.34163782	      1.07127140	     -0.23881091	      0.00000000	      0.50000000	      0.00000000	      0.25000000	     37.44981455	    -19.18172148	    -12.21806771	      8.40645420	      0.14672030	    -34.46622444	      4.23860778	      0.00000000	      0.00000000	     84.72891694	      5.13769783	     -7.28951643	    109.12326856	      1.90456033	     -7.96912955	    -11.03725068	      0.00000000	      0.00000000	    -52.33828893	     -6.92301546	     -8.58525240	     35.08597432	    -36.56659858	     11.61014919	    109.47144959	     53.18341594	      0.00000000	      0.00000000	     56.85590457	    -20.69009577	     29.76698772	     95.12198607	     52.72405890	      0.00000000	      0.00000000
      5.06000000	    -36.04140281	     10.44437686	      8.79447010	      0.34256506	      1.07372634	     -0.23909493	      0.00000000	      0.50000000	      0.00000000	      0.25000000	     36.15190480	    -19.63643552	    -13.75208237	      6.46530536	      0.11284087	    -37.94475164	      4.39230593	      0.00000000	      0.00000000	     85.74474411	      5.95390691	     -7.22950563	    108.92249715	      1.90105620	     -7.20243585	    -10.96291202	      0.00000000	      0.00000000	    -52.10158255	     -6.59808292	     -9.62427535	     34.71347993	    -35.10795214	     11.49176580	    108.33399564	     52.99310276	      0.00000000	      0.00000000	     56.91190356	    -20.89733400	     30.00049042	     94.62115629	     52.66410658	      0.00000000	      0.00000000
      5.06500000	    -36.14165812	     10.90203950	      9.74323163	      0.34342318	      1.07696031	     -0.23935425	      0.00000000	      0.50000000	      0.00000000	      0.25000000	     35.09328454	    -20.57019153	    -14.98382922	      5.57226765	      0.09725442	    -39.30968512	      5.35614031	      0.00000000	      0.00000000	     86.22785448	      6.76035676	     -7.63709129	    108.51792562	      1.89399510	     -5.60719469	    -10.26588448	      0.00000000	      0.00000000	    -52.36244599	     -6.51606053	    -10.94505291	     35.10339037	    -33.55339132	     11.30426872	    107.14934791	     52.77890572	      0.00000000	      0.00000000	     57.41433482	    -21.29567859	     30.18744995	     94.34729619	     52.62970251	      0.00000000	      0.00000000
      5.07000000	    -36.31270891	     11.56210414	     10.71192356	      0.34393047	      1.08042625	     -0.24000572	      0.00000000	      0.50000000	      0.00000000	      0.25000000	     34.27999530	    -21.75368421	    -15.85799054	      5.14040480	      0.08971699	    -39.62798731	      6.41309166	      0.00000000	      0.00000000	     86.63706433	      7.68072567	     -8.30461692	    107.91572907	      1.88348479	     -4.12966334	     -9.82617909	      0.00000000	      0.00000000	    -52.77578372	     -6.54465619	    -12.17047764	     35.02203095	    -33.19092622	     11.35134675	    106.59635963	     52.70090014	      0.00000000	      0.00000000	     57.91600307	    -21.36839202	     30.41809986	     94.36363021	     52.64716237	      0.00000000	      0.00000000
